name processed_emg_signals
nRows=50
nColumns=7
 
endheader
time	RGLTMED	RRF	RADDLONG	RST	RTA	RGM
0.627	0.247225908852766	0.7255492351742854	0.8321526613107934	0.0631363741556848	0.519032802748351	0.4397073154778324
0.628	0.2473802455928805	0.7198647507204127	0.8338234640206595	0.0642285279085599	0.5110391361684712	0.4448756448162212
0.629	0.2475873705620268	0.7140024421663141	0.8354241287509733	0.0653756943172283	0.5029592981673244	0.4501569020746684
0.63	0.2478455144507125	0.7079660673416633	0.8369532925894072	0.06657820878566	0.4948058665932466	0.455551447285592
0.631	0.2481528570683266	0.7017595593652819	0.8384096480406682	0.0678363582485921	0.4865914893309572	0.4610594958245876
0.632	0.2485075305967739	0.6953870217549918	0.8397919455388185	0.0691503798336221	0.4783288640273493	0.4666811139180343
0.633	0.2489076228711279	0.6888527233588466	0.8410989959129771	0.070520459548797	0.470030717952916	0.4724162142904456
0.634	0.249351180680008	0.6821610931234119	0.8423296727931885	0.0719467309982458	0.4617097880354341	0.4782645519682775
0.635	0.2498362130782378	0.6753167147136712	0.8434829149435417	0.0734292741284712	0.4533788011007282	0.4842257202564773
0.636	0.2503606947051622	0.6683243209980528	0.8445577285098999	0.07496811400804	0.4450504543536746	0.4902991469037506
0.637	0.2509225691024236	0.661188788412231	0.8455531891694223	0.0765632196436694	0.4367373961308803	0.4964840904724326
0.638	0.2515197520258616	0.6539151312145566	0.8464684441696602	0.0782145028357773	0.4284522069549966	0.5027796369291129
0.639	0.2521501347458774	0.6465084956464225	0.8473027142454765	0.079921817076646	0.4202073809189932	0.5091846964721055
0.64	0.2528115873308569	0.6389741540097849	0.8480552954040561	0.0816849564944773	0.4120153074272947	0.5156980006114847
0.641	0.2535019619083907	0.6313174986739064	0.8487255605698075	0.0835036548466798	0.4038882533189648	0.5223180995164917
0.642	0.2542190958984737	0.6235440360219813	0.8493129610823774	0.0853775845659167	0.395838345396724	0.5290433596440506
0.643	0.2549608152129556	0.6156593803475536	0.8498170280436781	0.0873063558622793	0.3878775533839679	0.5358719616608691
0.644	0.2557249374154357	0.6076692477094588	0.8502373735101544	0.0892895158850445	0.3800176733306434	0.5428018986701475
0.645	0.2565092748354996	0.5995794497528989	0.8505736915295682	0.0913265479471929	0.3722703114872904	0.5498309747522178
0.646	0.2573116376319618	0.5913958875031313	0.8508257590223515	0.0934168708158208	0.3646468686652408	0.5569568038267456
0.647	0.2581298367995288	0.583124545136439	0.8509934365102843	0.0955598380714557	0.3571585250994474	0.5641768088427295
0.648	0.2589616871142456	0.5747714837313004	0.8510766686964949	0.0977547375394492	0.3498162258291254	0.5714882213015128
0.649	0.2598050100131029	0.5663428350005957	0.8510754849013071	0.10000079079652	0.3426306666100233	0.5788880811175566
0.65	0.2606576364042287	0.5578447950041576	0.8509899993590452	0.1022971527554443	0.3356122803709929	0.586373236821502
0.651	0.2615174094047252	0.5492836178395527	0.8508204113791539	0.1046429113309517	0.3287712242264121	0.5939403461102888
0.652	0.2623821870037566	0.5406656093078871	0.8505670053747365	0.1070370871895304	0.3221173670550111	0.6015858767488882
0.653	0.2632498446492254	0.531997120550576	0.850230150759878	0.1094786335858898	0.3156602776547497	0.6093061078279902
0.654	0.2641182777573377	0.5232845416526483	0.8498103017174148	0.1119664362885954	0.3094092134824879	0.6170971313813682
0.655	0.2649854041443369	0.5145342952077784	0.8493079968380244	0.1144993135973578	0.3033731099864425	0.6249548543662332
0.656	0.2658491663806097	0.5057528298406009	0.8487238586314263	0.1170760164541772	0.2975605705385755	0.6328750010096608
0.657	0.2667075340667065	0.4969466136821703	0.8480585929087272	0.1196952286506995	0.2919798569733504	0.6408531155240269
0.658	0.2675585060317701	0.4881221277956314	0.8473129880346683	0.1223555671340711	0.2866388807383573	0.6488845651944012
0.659	0.2684001124548791	0.4792858595503587	0.8464879140471169	0.1250555824136306	0.2815451946614081	0.6569645438409175
0.66	0.2692304169104125	0.4704442959439954	0.8455843216416415	0.1277937590707298	0.2767059853377274	0.6650880756591875
0.661	0.2700475183396519	0.4616039168737857	0.8446032410210471	0.1305685163740302	0.2721280661398799	0.6732500194420462
0.662	0.2708495529506923	0.4527711883610834	0.8435457806109367	0.1333782090025196	0.2678178708520638	0.6814450731858608
0.663	0.2716346960492623	0.4439525557360315	0.8424131256457967	0.1362211278782569	0.2637814479294993	0.6896677790847087
0.664	0.272401163803078	0.4351544367920753	0.8412065366324352	0.1390955011107174	0.260024455382669	0.697912528915078
0.665	0.2731472149420676	0.4263832149225849	0.8399273476989946	0.1419994950543299	0.2565521562853098	0.7061735698130428
0.666	0.2738711523966205	0.4176452322539128	0.8385769648394246	0.1449312154806612	0.2533694149041713	0.7144450104445715
0.667	0.2745713248759465	0.4089467827901525	0.8371568640626029	0.1478887088667961	0.2504806934475821	0.7227208275681365
0.668	0.2752461283880471	0.4002941055851847	0.8356685894566391	0.1508699638011822	0.2478900494289909	0.7309948729874152
0.669	0.275894007703336	0.3916933779574245	0.8341137511790613	0.1538729125081829	0.2456011336406864	0.7392608808898479
0.67	0.2765134577637628	0.3831507087619251	0.8324940233849856	0.1568954324922852	0.2436171887320779	0.7475124755650555
0.671	0.2771030250402081	0.3746721317351728	0.8308111421043932	0.1599353483026768	0.241941048386161	0.7557431794947147
0.672	0.2776613088406683	0.3662635989270903	0.8290669030815061	0.1629904334184969	0.2405751370871172	0.7639464218033445
0.673	0.2781869625718414	0.3579309742351683	0.8272631595879094	0.1660584122548831	0.2395214704714166	0.772115547056967
0.674	0.2786786949566195	0.3496800270548255	0.8254018202228576	0.1691369622895928	0.2387816562542972	0.7802438243942851
0.675	0.2791352712086912	0.3415164260598841	0.8234848467125131	0.1722237163097112	0.2383568957229007	0.7883244569727698
0.676	0.2795555141653021	0.3334457331262605	0.8215142517202618	0.1753162647777779	0.2382479857866932	0.7963505917102888
